<svg width="141" height="29" viewBox="0 0 141 29" fill="none" xmlns="http://www.w3.org/2000/svg">
<path fill-rule="evenodd" clip-rule="evenodd" d="M113.054 11.795C112.349 11.795 111.71 12.098 111.248 12.587L110.761 13.352V13.271H108.44V15.729H110.761V15.648L111.248 16.413C111.71 16.902 112.349 17.205 113.054 17.205C114.465 17.205 115.608 15.994 115.608 14.5C115.608 13.006 114.465 11.795 113.054 11.795ZM102 0H119V29H102V0Z" fill="#2C3845"/>
<path fill-rule="evenodd" clip-rule="evenodd" d="M124 0H128.215C130.482 0 132.21 0.178004 133.399 0.535004C134.998 1.019 136.367 1.87801 137.506 3.11301C138.646 4.34801 139.513 5.85999 140.11 7.64899C140.7 9.43799 141 11.644 141 14.267C141 16.572 140.72 18.558 140.16 20.227C139.482 22.264 138.51 23.913 137.246 25.173C136.292 26.128 135.004 26.873 133.381 27.408C132.167 27.803 130.544 28 128.512 28H124V23.282H127.769C129.305 23.282 130.414 23.193 131.095 23.015C131.987 22.786 132.727 22.397 133.316 21.85C133.904 21.302 134.384 20.402 134.756 19.147C135.128 17.893 135.313 16.184 135.313 14.019C135.313 11.854 135.128 10.193 134.756 9.034C134.384 7.875 133.864 6.97099 133.195 6.32199C132.526 5.67299 131.677 5.233 130.649 5.004C129.881 4.826 128.376 4.737 126.133 4.737H124V0Z" fill="#2C3845"/>
<path fill-rule="evenodd" clip-rule="evenodd" d="M0 0H5.80902V11.021H17.191V0H23V28H17.191V15.757H5.80902V28H0V0Z" fill="#2C3845"/>
<path fill-rule="evenodd" clip-rule="evenodd" d="M49 0H54V28H49V0Z" fill="#2C3845"/>
<path fill-rule="evenodd" clip-rule="evenodd" d="M35.325 7C38.351 7 40.738 7.987 42.487 9.961C44.236 11.935 45.072 14.959 44.995 19.032H31.515C31.553 20.609 31.987 21.836 32.817 22.712C33.647 23.589 34.681 24.027 35.919 24.027C36.761 24.027 37.47 23.8 38.044 23.346C38.619 22.892 39.053 22.16 39.346 21.151L44.708 22.041C44.019 23.983 42.93 25.462 41.443 26.477C39.956 27.492 38.095 28 35.861 28C32.325 28 29.708 26.859 28.011 24.576C26.67 22.747 26 20.439 26 17.651C26 14.322 26.881 11.714 28.642 9.828C30.404 7.943 32.632 7 35.325 7ZM35.651 11.068C34.476 11.068 33.506 11.49 32.74 12.335C31.974 13.18 31.598 14.328 31.611 15.778H39.653C39.615 14.24 39.212 13.07 38.446 12.269C37.68 11.468 36.749 11.068 35.651 11.068Z" fill="#2C3845"/>
<path fill-rule="evenodd" clip-rule="evenodd" d="M66.309 7C69.092 7 71.161 7.44799 72.514 8.34299C73.868 9.23899 74.8 10.563 75.31 12.316L70.235 13.243C70.018 12.461 69.606 11.862 69 11.446C68.393 11.03 67.528 10.822 66.404 10.822C64.987 10.822 63.972 11.017 63.359 11.408C62.95 11.686 62.746 12.045 62.746 12.487C62.746 12.865 62.925 13.187 63.282 13.451C63.768 13.804 65.443 14.303 68.31 14.946C71.177 15.589 73.178 16.377 74.315 17.311C75.438 18.257 76 19.575 76 21.265C76 23.106 75.221 24.689 73.663 26.014C72.106 27.338 69.801 28 66.749 28C63.978 28 61.785 27.445 60.17 26.335C58.555 25.225 57.498 23.718 57 21.814L62.401 21C62.631 22.034 63.097 22.819 63.8 23.356C64.502 23.892 65.485 24.159 66.749 24.159C68.141 24.159 69.188 23.907 69.89 23.403C70.363 23.05 70.599 22.577 70.599 21.984C70.599 21.58 70.471 21.246 70.216 20.981C69.948 20.729 69.348 20.495 68.415 20.281C64.074 19.335 61.322 18.471 60.16 17.689C58.551 16.604 57.747 15.097 57.747 13.168C57.747 11.427 58.443 9.96402 59.835 8.77802C61.226 7.59302 63.384 7 66.309 7Z" fill="#2C3845"/>
<path fill-rule="evenodd" clip-rule="evenodd" d="M88.325 7C91.351 7 93.738 7.987 95.487 9.961C97.236 11.935 98.072 14.959 97.995 19.032H84.515C84.553 20.609 84.987 21.836 85.817 22.712C86.647 23.589 87.681 24.027 88.919 24.027C89.761 24.027 90.47 23.8 91.044 23.346C91.619 22.892 92.053 22.16 92.346 21.151L97.708 22.041C97.019 23.983 95.93 25.462 94.443 26.477C92.956 27.492 91.095 28 88.861 28C85.325 28 82.708 26.859 81.011 24.576C79.67 22.747 79 20.439 79 17.651C79 14.322 79.881 11.714 81.642 9.828C83.404 7.943 85.632 7 88.325 7ZM88.651 11.068C87.476 11.068 86.506 11.49 85.74 12.335C84.974 13.18 84.598 14.328 84.611 15.778H92.653C92.615 14.24 92.212 13.07 91.446 12.269C90.68 11.468 89.749 11.068 88.651 11.068Z" fill="#2C3845"/>
</svg>
